<svg xmlns="http://www.w3.org/2000/svg" viewBox="0 0 900 320" fill="none">
  <defs>
    <linearGradient id="bg" x1="0%" y1="0%" x2="100%" y2="100%">
      <stop offset="0%" style="stop-color:#0d1117"/>
      <stop offset="50%" style="stop-color:#161b22"/>
      <stop offset="100%" style="stop-color:#0d1117"/>
    </linearGradient>
    <linearGradient id="accent" x1="0%" y1="0%" x2="100%" y2="0%">
      <stop offset="0%" style="stop-color:#58a6ff"/>
      <stop offset="50%" style="stop-color:#bc8cff"/>
      <stop offset="100%" style="stop-color:#f78166"/>
    </linearGradient>
    <linearGradient id="glow1" x1="0%" y1="0%" x2="100%" y2="100%">
      <stop offset="0%" style="stop-color:#58a6ff;stop-opacity:0.15"/>
      <stop offset="100%" style="stop-color:#58a6ff;stop-opacity:0"/>
    </linearGradient>
    <linearGradient id="glow2" x1="100%" y1="0%" x2="0%" y2="100%">
      <stop offset="0%" style="stop-color:#f78166;stop-opacity:0.12"/>
      <stop offset="100%" style="stop-color:#f78166;stop-opacity:0"/>
    </linearGradient>
    <filter id="blur1">
      <feGaussianBlur in="SourceGraphic" stdDeviation="40"/>
    </filter>
    <filter id="blur2">
      <feGaussianBlur in="SourceGraphic" stdDeviation="30"/>
    </filter>
    <filter id="textshadow">
      <feDropShadow dx="0" dy="0" stdDeviation="8" flood-color="#58a6ff" flood-opacity="0.4"/>
    </filter>
  </defs>

  <!-- Background -->
  <rect width="900" height="320" rx="12" fill="url(#bg)"/>

  <!-- Ambient glow blobs -->
  <circle cx="150" cy="160" r="180" fill="url(#glow1)" filter="url(#blur1)"/>
  <circle cx="750" cy="160" r="160" fill="url(#glow2)" filter="url(#blur2)"/>

  <!-- Grid pattern (subtle) -->
  <g opacity="0.04" stroke="#58a6ff" stroke-width="0.5">
    <line x1="0" y1="40" x2="900" y2="40"/>
    <line x1="0" y1="80" x2="900" y2="80"/>
    <line x1="0" y1="120" x2="900" y2="120"/>
    <line x1="0" y1="160" x2="900" y2="160"/>
    <line x1="0" y1="200" x2="900" y2="200"/>
    <line x1="0" y1="240" x2="900" y2="240"/>
    <line x1="0" y1="280" x2="900" y2="280"/>
    <line x1="100" y1="0" x2="100" y2="320"/>
    <line x1="200" y1="0" x2="200" y2="320"/>
    <line x1="300" y1="0" x2="300" y2="320"/>
    <line x1="400" y1="0" x2="400" y2="320"/>
    <line x1="500" y1="0" x2="500" y2="320"/>
    <line x1="600" y1="0" x2="600" y2="320"/>
    <line x1="700" y1="0" x2="700" y2="320"/>
    <line x1="800" y1="0" x2="800" y2="320"/>
  </g>

  <!-- Decorative terminal prompt left -->
  <g opacity="0.12">
    <text x="40" y="60" font-family="monospace" font-size="11" fill="#58a6ff">$ wtf is kubernetes?</text>
    <text x="40" y="78" font-family="monospace" font-size="11" fill="#7ee787">A system that manages containers in production.</text>
    <text x="40" y="108" font-family="monospace" font-size="11" fill="#58a6ff">$ wtf is CORS?</text>
    <text x="40" y="126" font-family="monospace" font-size="11" fill="#7ee787">A browser security mechanism that blocks cross-origin requests.</text>
  </g>

  <!-- Decorative terminal prompt right -->
  <g opacity="0.12">
    <text x="540" y="230" font-family="monospace" font-size="11" fill="#58a6ff">$ wtf is a JWT?</text>
    <text x="540" y="248" font-family="monospace" font-size="11" fill="#7ee787">A signed piece of JSON that proves identity.</text>
    <text x="540" y="278" font-family="monospace" font-size="11" fill="#58a6ff">$ wtf is sharding?</text>
    <text x="540" y="296" font-family="monospace" font-size="11" fill="#7ee787">Splitting your database into smaller pieces.</text>
  </g>

  <!-- Floating nodes decoration -->
  <g opacity="0.08">
    <!-- Node connections -->
    <line x1="720" y1="70" x2="790" y2="100" stroke="#bc8cff" stroke-width="1.5"/>
    <line x1="790" y1="100" x2="830" y2="60" stroke="#bc8cff" stroke-width="1.5"/>
    <line x1="790" y1="100" x2="850" y2="130" stroke="#bc8cff" stroke-width="1.5"/>
    <line x1="720" y1="70" x2="680" y2="110" stroke="#bc8cff" stroke-width="1.5"/>
    <!-- Nodes -->
    <circle cx="720" cy="70" r="4" fill="#bc8cff"/>
    <circle cx="790" cy="100" r="5" fill="#bc8cff"/>
    <circle cx="830" cy="60" r="3" fill="#bc8cff"/>
    <circle cx="850" cy="130" r="4" fill="#bc8cff"/>
    <circle cx="680" cy="110" r="3" fill="#bc8cff"/>
  </g>

  <!-- Main title -->
  <text x="450" y="148" text-anchor="middle" font-family="'Segoe UI', system-ui, -apple-system, sans-serif" font-weight="800" font-size="72" fill="url(#accent)" filter="url(#textshadow)">
    WTF Is...?
  </text>

  <!-- Subtitle -->
  <text x="450" y="190" text-anchor="middle" font-family="'Segoe UI', system-ui, -apple-system, sans-serif" font-weight="400" font-size="18" fill="#8b949e">
    Tech jargon explained in plain language.
  </text>

  <!-- Accent line -->
  <rect x="340" y="205" width="220" height="2" rx="1" fill="url(#accent)" opacity="0.6"/>

  <!-- Stats pills -->
  <g transform="translate(268, 232)">
    <rect width="100" height="28" rx="14" fill="#21262d" stroke="#30363d" stroke-width="1"/>
    <text x="50" y="18" text-anchor="middle" font-family="'Segoe UI', system-ui, sans-serif" font-size="12" font-weight="600" fill="#58a6ff">857 concepts</text>
  </g>
  <g transform="translate(380, 232)">
    <rect width="95" height="28" rx="14" fill="#21262d" stroke="#30363d" stroke-width="1"/>
    <text x="47" y="18" text-anchor="middle" font-family="'Segoe UI', system-ui, sans-serif" font-size="12" font-weight="600" fill="#bc8cff">10 categories</text>
  </g>
  <g transform="translate(487, 232)">
    <rect width="80" height="28" rx="14" fill="#21262d" stroke="#30363d" stroke-width="1"/>
    <text x="40" y="18" text-anchor="middle" font-family="'Segoe UI', system-ui, sans-serif" font-size="12" font-weight="600" fill="#f78166">0 fluff</text>
  </g>

  <!-- Bottom border accent -->
  <rect x="0" y="316" width="900" height="4" rx="0" fill="url(#accent)" opacity="0.5"/>
</svg>
